# xmcd CD database file
#
# Track frame offsets:
#	150
#	20318
#	43073
#	63240
#
# Disc length: 1139 seconds
#
# Revision: 0
# Processed by: cddbd v1.5.1PL0 Copyright (c) Steve Scherf et al.
# Submitted via: CDex 1.50beta10
#
DISCID=2a047104
DTITLE=Nightmare - Raven Loud speeeker
DYEAR=2005
DGENRE=Rock
TTITLE0=Raven Loud speeeker
TTITLE1=ナヅキ
TTITLE2=Raven Loud speeeker(inst.)
TTITLE3=ナヅキ(inst.)
EXTD=YEAR: 2005
EXTT0=
EXTT1=
EXTT2=
EXTT3=
PLAYORDER=
